<?xml version='1.0' encoding='utf-8'?>
<svg xmlns="http://www.w3.org/2000/svg" viewBox="32 32 200.58334 200.58334"
  version="1.1" id="svg8">
  <defs id="defs2" />
  <metadata id="metadata5"> </metadata>
  <g id="layer1" transform="translate(0,-32.41665)">
    <g id="g7075" transform="translate(42.105993,42.808222)">
      <path
        fill="white"
        d="M 116.51197,33.894625 A 36.365546,36.365546 0 0 1 125.59436,57.875989 36.365546,36.365546 0 0 1 89.230281,94.240121 36.365546,36.365546 0 0 1 52.866099,57.875989 36.365546,36.365546 0 0 1 61.858079,33.976495 C 36.156659,57.521485 18.087527,108.8395 18.087527,138.42857 c 0,39.29101 31.851728,71.14269 71.142754,71.14272 39.290979,-3e-5 71.142709,-31.85171 71.142709,-71.14272 0,-29.62415 -18.11104,-81.027058 -43.86102,-104.533945 z M 40.716012,134.65428 77.196481,171.13475 a 25.793919,25.793919 0 0 1 -36.480469,0 25.793919,25.793919 0 0 1 0,-36.48047 z m 97.028488,0 a 25.793919,25.793919 0 0 1 0,36.48047 25.793919,25.793919 0 0 1 -36.48047,0 z"
        id="path1517" />
    </g>
  </g>
</svg>