<svg xmlns="http://www.w3.org/2000/svg" viewBox="64 64 384 384" fill="none">
  <path fill-rule="evenodd" clip-rule="evenodd"
    d="M256 192L200.57437415779594 224L200.57437415779594 288L256 320L311.42562584220406 288L311.42562584220406 224"
    fill="white" />
  <path fill-rule="evenodd" clip-rule="evenodd"
    d="M274.9332829185607 170.9339520309769L320.2027170814393 197.07027203097692L374.5929858422041 178.59092310000602L349.728 93.6583419081843L263.7417341577959 114.59092310000602"
    fill="white" />
  <path fill-rule="evenodd" clip-rule="evenodd"
    d="M191.7972829185607 197.07027203097692L237.0667170814393 170.9339520309769L248.25826584220408 114.59092310000602L162.27200000000005 93.6583419081843L137.40701415779594 178.59092310000602"
    fill="white" />
  <path fill-rule="evenodd" clip-rule="evenodd"
    d="M172.864 282.13632L172.86400000000003 229.86368000000002L129.66528000000002 192.0L68.54400000000007 255.99999999999997L129.66528 320.0"
    fill="white" />
  <path fill-rule="evenodd" clip-rule="evenodd"
    d="M237.0667170814393 341.0660479690231L191.7972829185607 314.9297279690231L137.40701415779594 333.409076899994L162.272 418.34165809181565L248.25826584220405 397.409076899994"
    fill="white" />
  <path fill-rule="evenodd" clip-rule="evenodd"
    d="M320.2027170814393 314.9297279690231L274.9332829185607 341.0660479690231L263.7417341577959 397.4090768999939L349.72799999999995 418.3416580918157L374.59298584220403 333.40907689999403"
    fill="white" />
  <path fill-rule="evenodd" clip-rule="evenodd"
    d="M339.13599999999997 229.86368L339.13599999999997 282.13632L382.33472 320L443.456 256L382.33472 192"
    fill="white" />
</svg>